<svg width="36" height="48" viewBox="0 0 36 48" fill="none" xmlns="http://www.w3.org/2000/svg">
<g clip-path="url(#clip0_709_895)">
<path d="M27.9625 40.1206C27.9625 38.6917 27.9689 37.5386 27.9625 36.3824C27.9511 34.6651 26.9462 33.667 25.2273 33.6556C24.7897 33.6556 24.352 33.6556 24.0725 33.5032C23.7512 32.8256 23.5033 32.0952 23.0733 31.4944C22.8835 31.2305 22.3232 31.1304 21.9311 31.1316C20.8674 31.1316 20.4342 31.7708 20.1426 33.6198H15.8485C15.8485 32.5429 15.6663 31.5303 14.4723 31.172C13.6439 30.9238 12.9792 31.2859 12.4075 32.012C12.1627 30.7853 12.047 29.5926 11.6669 28.4899C11.3678 27.6209 10.8239 26.799 10.2408 26.0742C9.71588 25.4212 8.98038 24.9363 8.36124 24.3569C8.24993 24.253 8.1576 24.0326 8.18542 23.8909C8.41436 22.7127 9.52932 21.7655 10.755 21.7051C11.1053 23.6019 12.5504 24.413 14.1877 24.9495C17.2076 25.942 20.1958 25.8444 23.0707 24.4211C24.1933 23.8663 25.0578 23.0515 25.24 21.7347C26.8843 21.6893 27.7431 22.4601 28.0157 24.2102C27.6311 24.4375 27.1973 24.6189 26.8564 24.9086C25.6656 25.9199 25.6302 27.7078 26.7445 28.7978C27.0072 29.0538 27.3203 29.2531 27.6639 29.383C28.0076 29.513 28.3745 29.571 28.7416 29.5532C29.1088 29.5355 29.4684 29.4425 29.7978 29.28C30.1272 29.1175 30.4194 28.889 30.656 28.6089C31.659 27.4407 31.5041 25.5232 30.14 24.7889C29.2008 24.282 29.2286 23.4816 28.8277 22.6151C30.2547 23.1869 31.5419 24.0568 32.6026 25.1661C35.2683 27.9307 36.3782 31.2311 35.8868 35.0323C35.6262 37.0418 34.5334 38.5166 32.583 39.1312C31.1379 39.5853 29.6094 39.7786 27.9625 40.1206Z" fill="#E09F1F"/>
<path d="M27.1246 9.57077C26.9083 13.2119 26.2145 16.3808 24.1996 19.1176C22.5617 21.3412 20.4797 22.8488 17.5592 22.6656C15.2996 22.5239 13.5825 21.3192 12.2032 19.6145C10.4147 17.4047 9.54009 14.8215 9.12901 12.0419C8.80774 9.87052 8.8381 7.75964 9.67669 5.6815C11.6144 0.88477 17.1228 -1.33443 21.8413 0.832502C22.1253 0.962858 22.3473 1.22042 22.6148 1.39486C23.0315 1.66754 23.5394 1.84701 23.8714 2.19589C24.5228 2.88041 25.1508 3.60839 25.6605 4.39998C26.6519 5.94124 27.1614 7.74085 27.1246 9.57077ZM10.2592 11.3403C10.2161 11.4751 10.1719 11.5406 10.1788 11.5998C10.5298 14.4966 11.4525 17.1623 13.5408 19.2971C16.1862 22.0006 19.9649 21.942 22.5756 19.2014C23.7091 18.0247 24.555 16.6038 25.0477 15.0489C25.4189 13.8725 25.665 12.6559 25.9673 11.4594L25.7636 11.3498L24.7821 11.7276C24.7821 10.613 24.8491 9.49772 24.7581 8.39567C24.7005 7.70296 24.4608 7.00269 24.2003 6.3465C24.0352 5.9315 23.6772 5.79674 23.1675 6.0203C19.7701 7.509 16.3437 7.52348 12.94 6.05745C12.2943 5.7791 11.8978 5.97243 11.7327 6.50456C11.481 7.31647 11.3146 8.15221 11.2362 8.99833C11.154 9.90264 11.2179 10.8208 11.2179 11.7251L10.2592 11.3403Z" fill="#E09F1F"/>
<path d="M7.38026 22.5273C7.0261 23.8353 6.37471 24.7459 5.35651 25.5092C4.21498 26.3612 3.48201 27.5187 3.162 29.0036C2.84579 30.4614 2.47646 31.8809 2.57828 33.3872C2.69085 35.0642 4.4806 36.221 6.03762 35.5592C6.24443 35.4716 6.47463 35.0661 6.43226 34.8614C6.38103 34.6171 6.07747 34.301 5.83209 34.2468C5.38939 34.1492 4.89863 34.2764 4.44582 34.2033C4.22384 34.1674 3.88992 33.913 3.86525 33.7235C3.68754 32.3525 3.66731 30.9444 4.30795 29.7001C4.8063 28.7309 5.50196 27.8335 6.2381 27.0237C7.03495 26.1471 7.98675 26.1716 8.79499 27.0445C10.4861 28.8707 11.4885 30.9646 11.0357 33.5938C10.8908 33.6108 10.7163 33.6416 10.5398 33.6511C9.09475 33.7291 8.09995 34.7103 8.0677 36.148C8.04051 37.3747 8.06201 38.604 8.06201 39.9378C5.61517 39.74 3.20437 39.6752 1.37288 37.7966C0.63674 37.0435 0.293967 36.0831 0.129537 35.0516C-0.658461 30.1006 2.21337 24.8108 6.80286 22.7616C6.96729 22.6886 7.13614 22.6262 7.38026 22.5273Z" fill="#E09F1F"/>
<path d="M18.015 47.9971C15.664 47.9971 13.3133 47.9971 10.9628 47.9971C10.0471 47.9971 9.82827 47.7887 9.82764 46.9115C9.82764 43.434 9.82932 39.9566 9.8327 36.4792C9.8327 35.6498 10.0325 35.4546 10.8566 35.4389C11.1595 35.4332 11.4757 35.3828 11.761 35.4527C12.0462 35.5226 12.3605 35.6568 12.5293 35.8683C13.3154 36.8526 14.6865 36.8507 15.4745 35.8683C15.6421 35.6574 15.9741 35.4697 16.2372 35.4603C17.4224 35.4162 18.6113 35.4162 19.7965 35.4603C20.0583 35.4697 20.3885 35.6605 20.5554 35.8709C21.296 36.8155 22.6785 36.9043 23.3766 35.9496C23.6853 35.527 24.0053 35.4005 24.4758 35.4395C24.7288 35.4603 24.9881 35.4363 25.2436 35.4395C25.9727 35.4584 26.1973 35.6769 26.1979 36.4099C26.2013 39.9335 26.2013 43.4573 26.1979 46.9814C26.1979 47.7679 25.9595 47.9959 25.1405 47.9971C22.7643 47.9988 20.3891 47.9988 18.015 47.9971ZM18.0112 46.2024V46.2074C19.8256 46.2074 21.64 46.2125 23.4544 46.2074C24.4416 46.2036 24.6984 45.9555 24.7022 44.9744C24.7104 42.9592 24.7073 40.9441 24.7022 38.9289C24.7022 37.91 24.4606 37.6694 23.414 37.665C19.7624 37.6616 16.1103 37.6642 12.4579 37.6726C11.5858 37.6726 11.3296 37.9244 11.3265 38.7935C11.3185 40.8783 11.3185 42.9634 11.3265 45.0487C11.3309 45.9499 11.594 46.2024 12.4946 46.2049C14.3355 46.2062 16.1734 46.2024 18.0112 46.2024Z" fill="#E09F1F"/>
<path d="M14.8858 33.8519C14.8858 34.1995 14.9042 34.5446 14.8808 34.8934C14.8454 35.4111 14.5285 35.7121 14.027 35.7278C13.5255 35.7436 13.1498 35.4445 13.1094 34.9539C13.0515 34.2384 13.0528 33.5193 13.1132 32.804C13.1562 32.28 13.5293 31.9576 14.07 31.9998C14.5684 32.0388 14.8593 32.3663 14.8833 32.8814C14.8985 33.2026 14.8865 33.5275 14.8858 33.8519Z" fill="#E09F1F"/>
<path d="M21.138 33.8601C21.138 33.5358 21.1259 33.2115 21.138 32.8878C21.1601 32.3783 21.4371 32.0395 21.9392 31.9973C22.4768 31.9526 22.8638 32.2706 22.91 32.7889C22.9698 33.5039 22.9698 34.2226 22.91 34.9376C22.8714 35.4307 22.516 35.7455 22.0082 35.7248C21.4776 35.7021 21.155 35.3872 21.1354 34.8324C21.124 34.5087 21.1354 34.1844 21.1354 33.8601H21.138Z" fill="#E09F1F"/>
<path d="M28.5182 28.2264C28.1689 28.2009 27.8437 28.0398 27.6124 27.7779C27.3812 27.5159 27.2625 27.1741 27.2818 26.8259C27.3198 26.0979 27.9301 25.557 28.6763 25.5903C28.8502 25.5952 29.0214 25.6342 29.1801 25.705C29.3388 25.7759 29.482 25.8772 29.6013 26.0032C29.7207 26.1292 29.8139 26.2774 29.8757 26.4393C29.9375 26.6012 29.9666 26.7737 29.9614 26.9468C29.9323 27.6811 29.2676 28.2743 28.5182 28.2264Z" fill="#E09F1F"/>
<path d="M17.974 45.513C16.4113 45.5061 16.4195 45.5061 16.4164 43.9632C16.4132 42.4204 16.2507 42.3555 18.0139 42.3719C19.7372 42.3883 19.612 42.3625 19.6082 43.9702C19.605 45.5193 19.6158 45.5193 17.974 45.513Z" fill="#E09F1F"/>
<path d="M13.9915 45.512C12.4737 45.4912 12.3472 45.8055 12.3624 43.886C12.3744 42.3797 12.358 42.379 13.9042 42.3746C15.5745 42.369 15.5745 42.369 15.553 44.0434C15.534 45.5164 15.534 45.5164 13.9915 45.512Z" fill="#E09F1F"/>
<path d="M18.0239 41.4694C16.3474 41.4745 16.4157 41.6105 16.4163 39.9058C16.4163 38.3541 16.4112 38.3686 17.9702 38.3635C19.7865 38.3579 19.61 38.2722 19.6113 40.0261C19.6094 41.4669 19.6088 41.4669 18.0239 41.4694Z" fill="#E09F1F"/>
<path d="M13.9428 41.4707C12.3561 41.4707 12.3561 41.4707 12.3662 39.875C12.3763 38.3636 12.3763 38.3636 13.884 38.3592C15.7617 38.3529 15.5283 38.2899 15.5492 39.9965C15.5688 41.6143 15.6099 41.4701 13.9428 41.4707Z" fill="#E09F1F"/>
<path d="M22.041 38.3617C23.7321 38.3535 23.6556 38.2207 23.6587 39.9833C23.6587 41.4789 23.6638 41.4852 22.1845 41.4689C20.3701 41.4481 20.4833 41.7082 20.477 39.8139C20.4732 38.3762 20.4599 38.3762 22.041 38.3617Z" fill="#E09F1F"/>
<path d="M22.0341 45.5137C20.4619 45.5269 20.4593 45.5269 20.477 43.979C20.496 42.3329 20.281 42.382 22.1213 42.3738C23.6638 42.3675 23.6474 42.3638 23.6613 43.8852C23.679 45.8198 23.5519 45.4791 22.0341 45.5137Z" fill="#E09F1F"/>
</g>
<defs>
<clipPath id="clip0_709_895">
<rect width="36" height="48" fill="white"/>
</clipPath>
</defs>
</svg>
