<svg width="24" height="25" viewBox="0 0 24 25" fill="none" xmlns="http://www.w3.org/2000/svg">
<path d="M20.75 3.87061L15.7456 3.87062V2.625C15.7456 2.27969 15.4659 2 15.1206 2C14.7753 2 14.4956 2.27969 14.4956 2.625V3.87031H9.49563V2.625C9.49563 2.27969 9.21594 2 8.87063 2C8.52531 2 8.24563 2.27969 8.24563 2.625V3.87031H3.25C2.55969 3.87031 2 4.43 2 5.12031V20.7453C2 21.4356 2.55969 21.9953 3.25 21.9953H20.75C21.4403 21.9953 22 21.4356 22 20.7453V5.12031C22 4.43029 21.4403 3.87061 20.75 3.87061ZM20.75 20.7453H3.25V5.12031H8.24563V5.75C8.24563 6.09529 8.52531 6.375 8.87063 6.375C9.21594 6.375 9.49563 6.09529 9.49563 5.75V5.12062H14.4956V5.75031C14.4956 6.09562 14.7753 6.37531 15.1206 6.37531C15.4659 6.37531 15.7456 6.09562 15.7456 5.75031V5.12062H20.75V20.7453ZM16.375 11.9956H17.625C17.97 11.9956 18.25 11.7156 18.25 11.3706V10.1206C18.25 9.7756 17.97 9.4956 17.625 9.4956H16.375C16.03 9.4956 15.75 9.7756 15.75 10.1206V11.3706C15.75 11.7156 16.03 11.9956 16.375 11.9956ZM16.375 16.9953H17.625C17.97 16.9953 18.25 16.7156 18.25 16.3703V15.1203C18.25 14.7753 17.97 14.4953 17.625 14.4953H16.375C16.03 14.4953 15.75 14.7753 15.75 15.1203V16.3703C15.75 16.7159 16.03 16.9953 16.375 16.9953ZM12.625 14.4953H11.375C11.03 14.4953 10.75 14.7753 10.75 15.1203V16.3703C10.75 16.7156 11.03 16.9953 11.375 16.9953H12.625C12.97 16.9953 13.25 16.7156 13.25 16.3703V15.1203C13.25 14.7756 12.97 14.4953 12.625 14.4953ZM12.625 9.4956H11.375C11.03 9.4956 10.75 9.7756 10.75 10.1206V11.3706C10.75 11.7156 11.03 11.9956 11.375 11.9956H12.625C12.97 11.9956 13.25 11.7156 13.25 11.3706V10.1206C13.25 9.77529 12.97 9.4956 12.625 9.4956ZM7.625 9.4956H6.375C6.03 9.4956 5.75 9.7756 5.75 10.1206V11.3706C5.75 11.7156 6.03 11.9956 6.375 11.9956H7.625C7.97 11.9956 8.25 11.7156 8.25 11.3706V10.1206C8.25 9.77529 7.97 9.4956 7.625 9.4956ZM7.625 14.4953H6.375C6.03 14.4953 5.75 14.7753 5.75 15.1203V16.3703C5.75 16.7156 6.03 16.9953 6.375 16.9953H7.625C7.97 16.9953 8.25 16.7156 8.25 16.3703V15.1203C8.25 14.7756 7.97 14.4953 7.625 14.4953Z" fill="#BBC4BE"/>
</svg>
