<svg width="86" height="86" viewBox="0 0 86 86" fill="none" xmlns="http://www.w3.org/2000/svg">
<rect width="85.6722" height="85.6722" rx="20" fill="#DCEDF9"/>
<path d="M40.5682 61.7713C41.1835 61.7713 41.686 62.2704 41.686 62.8857C41.686 63.5009 41.1869 64 40.5682 64H26.5979C25.8835 64 25.234 63.7094 24.7623 63.2377C24.2906 62.7694 24 62.1234 24 61.4055V24.5979C24 23.88 24.2906 23.234 24.7623 22.7623C25.234 22.2906 25.88 22 26.5979 22H58.4901C59.2045 22 59.854 22.294 60.3257 22.7623C60.7974 23.234 61.088 23.88 61.088 24.5979V43.0393C61.088 43.6546 60.5889 44.1537 59.9736 44.1537C59.3583 44.1537 58.8593 43.6546 58.8593 43.0393V24.5979C58.8593 24.4987 58.8183 24.4064 58.7499 24.3415C58.6815 24.2731 58.5892 24.2321 58.4935 24.2321H26.5979C26.4987 24.2321 26.4064 24.2731 26.3381 24.3381C26.2731 24.4099 26.2321 24.4987 26.2321 24.5979V61.4055C26.2321 61.5047 26.2731 61.597 26.3415 61.6619C26.4099 61.7303 26.5022 61.7713 26.6013 61.7713H40.5682ZM35.6015 41.7985C35.3896 41.4327 35.5434 40.3867 35.998 40.0176C37.297 39.2587 39.0881 39.4946 40.3392 38.6195C40.411 38.5101 40.4896 38.3529 40.5682 38.1786C40.681 37.9188 40.787 37.6351 40.852 37.4402C40.5751 37.1121 40.3358 36.7429 40.1102 36.3806L39.3582 35.1842C39.0847 34.774 38.9412 34.398 38.9309 34.0903C38.9275 33.9468 38.9514 33.8135 39.0061 33.6972C39.0608 33.5742 39.1463 33.4751 39.2659 33.3964C39.3206 33.3588 39.3821 33.3281 39.4471 33.3041C39.3958 32.6547 39.3787 31.8377 39.4129 31.1506C39.43 30.99 39.4607 30.8259 39.5052 30.6618C39.6966 29.9748 40.1786 29.421 40.7768 29.0416C41.1049 28.8331 41.4672 28.6724 41.8432 28.5665C42.0825 28.4981 41.6382 27.7358 41.8877 27.7085C43.0841 27.5854 45.0154 28.6758 45.8494 29.5783C46.2665 30.0295 46.5297 30.6311 46.5878 31.4241L46.5399 33.3759C46.7484 33.4409 46.8817 33.5708 46.9364 33.7861C46.998 34.0254 46.933 34.357 46.7279 34.815C46.7245 34.8218 46.7211 34.8321 46.7142 34.8389L45.8563 36.2507C45.5418 36.7702 45.2205 37.2898 44.8034 37.7C44.8411 37.7547 44.8821 37.8094 44.9197 37.8641C45.0906 38.1136 45.2615 38.3631 45.4803 38.5853C45.4871 38.5922 45.4939 38.6024 45.4974 38.6093C46.4852 39.3066 48.8883 39.4775 49.8112 39.9902L49.8488 40.0107C50.3239 40.3765 50.4709 41.4225 50.2521 41.7882H35.6015V41.7985ZM58.9652 49.0178C58.7841 48.8435 58.5756 48.7615 58.3363 48.7649C58.0936 48.7683 57.8885 48.864 57.721 49.0417L56.3366 50.4843L60.2232 54.2375L61.6212 52.7813C61.7887 52.6104 61.8571 52.3916 61.8537 52.1524C61.8502 51.9165 61.7648 51.6977 61.5939 51.5371L58.9652 49.0178ZM52.8979 61.7098C52.3851 61.8738 51.8724 62.0413 51.3631 62.2088C50.8503 62.3797 50.3376 62.5507 49.8283 62.7216C48.6216 63.1181 47.9448 63.3369 47.8013 63.3779C47.6645 63.4189 47.7431 62.8549 48.0508 61.6722L49.0113 57.9702L55.1026 51.7558L58.9858 55.492L52.8979 61.7098ZM34.8495 54.5964C34.2342 54.5964 33.7317 54.0905 33.7317 53.465C33.7317 52.8394 34.2308 52.3335 34.8495 52.3335H42.4414C43.0567 52.3335 43.5592 52.8394 43.5592 53.465C43.5592 54.0905 43.0601 54.5964 42.4414 54.5964H34.8495ZM34.8495 47.524C34.2342 47.524 33.7352 47.025 33.7352 46.4063C33.7352 45.791 34.2342 45.2919 34.8495 45.2919H49.9069C50.5222 45.2919 51.0212 45.791 51.0212 46.4063C51.0212 47.0216 50.5222 47.524 49.9069 47.524H34.8495Z" fill="#1C6BA4"/>
</svg>
