<svg width="40" height="40" viewBox="0 0 40 40" fill="none" xmlns="http://www.w3.org/2000/svg">
<circle cx="20" cy="20" r="20" fill="white"/>
<path d="M26.5223 13.1138C24.8109 11.7444 22.6842 10.9989 20.4924 11C17.9087 11 15.4956 11.9954 13.6914 13.8029C11.9479 15.5519 10.9924 17.8612 11 20.3036C11.0001 22.0943 11.5258 23.8456 12.512 25.3403L12.52 25.3518C12.5319 25.3692 12.5442 25.3866 12.5565 25.4035C12.5688 25.4205 12.5841 25.4425 12.5875 25.4481L12.5968 25.465C12.6447 25.5498 12.6816 25.6533 12.649 25.7577L11.8678 28.5848C11.8365 28.6899 11.8194 28.7987 11.8169 28.9083C11.8163 29.1968 11.9302 29.4737 12.1334 29.6783C12.3367 29.883 12.6129 29.9987 12.9013 30C13.0537 29.995 13.2039 29.962 13.3445 29.9029L16.2068 28.8698L16.2428 28.8558C16.3207 28.8231 16.4044 28.8065 16.4888 28.807C16.5667 28.8072 16.6439 28.8216 16.7166 28.8494C16.7853 28.8761 17.4091 29.1149 18.0673 29.299C18.6144 29.4516 19.7527 29.6806 20.6446 29.6806C23.1744 29.6806 25.5367 28.701 27.2959 26.9214C29.0398 25.1554 30 22.808 30 20.3087C30.0002 19.6672 29.9323 19.0274 29.7973 18.4002C29.3588 16.3382 28.1959 14.4603 26.5223 13.1138ZM16.4286 21.8571C16.1602 21.8571 15.8978 21.7775 15.6746 21.6284C15.4514 21.4793 15.2775 21.2673 15.1748 21.0194C15.0721 20.7714 15.0452 20.4985 15.0975 20.2352C15.1499 19.972 15.2792 19.7302 15.469 19.5404C15.6588 19.3506 15.9006 19.2213 16.1638 19.1689C16.4271 19.1166 16.7 19.1434 16.948 19.2462C17.1959 19.3489 17.4079 19.5228 17.557 19.746C17.7061 19.9692 17.7857 20.2316 17.7857 20.5C17.7857 20.8599 17.6428 21.2051 17.3882 21.4596C17.1337 21.7142 16.7885 21.8571 16.4286 21.8571ZM20.5 21.8571C20.2316 21.8571 19.9692 21.7775 19.746 21.6284C19.5229 21.4793 19.3489 21.2673 19.2462 21.0194C19.1435 20.7714 19.1166 20.4985 19.169 20.2352C19.2213 19.972 19.3506 19.7302 19.5404 19.5404C19.7302 19.3506 19.972 19.2213 20.2353 19.1689C20.4985 19.1166 20.7714 19.1434 21.0194 19.2462C21.2674 19.3489 21.4793 19.5228 21.6284 19.746C21.7776 19.9692 21.8572 20.2316 21.8572 20.5C21.8572 20.8599 21.7142 21.2051 21.4597 21.4596C21.2052 21.7142 20.86 21.8571 20.5 21.8571ZM24.5714 21.8571C24.303 21.8571 24.0406 21.7775 23.8175 21.6284C23.5943 21.4793 23.4203 21.2673 23.3176 21.0194C23.2149 20.7714 23.188 20.4985 23.2404 20.2352C23.2927 19.972 23.422 19.7302 23.6118 19.5404C23.8016 19.3506 24.0434 19.2213 24.3067 19.1689C24.5699 19.1166 24.8428 19.1434 25.0908 19.2462C25.3388 19.3489 25.5507 19.5228 25.6999 19.746C25.849 19.9692 25.9286 20.2316 25.9286 20.5C25.9286 20.8599 25.7856 21.2051 25.5311 21.4596C25.2766 21.7142 24.9314 21.8571 24.5714 21.8571Z" fill="#1C6BA4"/>
</svg>
