<svg width="40" height="40" viewBox="0 0 40 40" fill="none" xmlns="http://www.w3.org/2000/svg">
<circle cx="20" cy="20" r="20" fill="white"/>
<path d="M28 30H12V28C12 26.6739 12.5268 25.4021 13.4645 24.4645C14.4021 23.5268 15.6739 23 17 23H23C24.3261 23 25.5979 23.5268 26.5355 24.4645C27.4732 25.4021 28 26.6739 28 28V30ZM20 21C19.2121 21 18.4319 20.8448 17.7039 20.5433C16.9759 20.2417 16.3145 19.7998 15.7574 19.2426C15.2002 18.6855 14.7583 18.0241 14.4567 17.2961C14.1552 16.5681 14 15.7879 14 15C14 14.2121 14.1552 13.4319 14.4567 12.7039C14.7583 11.9759 15.2002 11.3145 15.7574 10.7574C16.3145 10.2002 16.9759 9.75825 17.7039 9.45672C18.4319 9.15519 19.2121 9 20 9C21.5913 9 23.1174 9.63214 24.2426 10.7574C25.3679 11.8826 26 13.4087 26 15C26 16.5913 25.3679 18.1174 24.2426 19.2426C23.1174 20.3679 21.5913 21 20 21Z" fill="#1C6BA4"/>
</svg>
