<svg width="13" height="22" viewBox="0 0 13 22" fill="none" xmlns="http://www.w3.org/2000/svg">
<path d="M0.475804 21.5395C0.171147 21.2445 0 20.8446 0 20.4275C0 20.0104 0.171147 19.6105 0.475804 19.3155L9.07739 10.9905L0.475804 2.6655C0.179781 2.36886 0.0159814 1.97156 0.0196841 1.55917C0.0233867 1.14677 0.194295 0.752289 0.495599 0.460673C0.796904 0.169057 1.2045 0.00364303 1.63059 5.9457e-05C2.05668 -0.00352412 2.46718 0.155009 2.77368 0.441514L12.5242 9.87851C12.8289 10.1735 13 10.5734 13 10.9905C13 11.4076 12.8289 11.8075 12.5242 12.1025L2.77368 21.5395C2.46893 21.8344 2.05565 22 1.62474 22C1.19382 22 0.780552 21.8344 0.475804 21.5395Z" fill="#E4E9F1"/>
</svg>
