<svg width="25" height="25" viewBox="0 0 25 25" fill="none" xmlns="http://www.w3.org/2000/svg">
<path d="M12.5 0C5.60757 0 0 5.60757 0 12.5C0 19.3924 5.60757 25 12.5 25C19.3924 25 25 19.3924 25 12.5C25 5.60757 19.3924 0 12.5 0ZM19.0054 8.3107L10.9285 17.9261C10.8399 18.0316 10.7296 18.1169 10.6052 18.1761C10.4808 18.2353 10.3451 18.267 10.2073 18.2692H10.1911C10.0563 18.2692 9.92307 18.2408 9.79998 18.1859C9.67688 18.1311 9.56669 18.0509 9.47656 17.9507L6.01502 14.1046C5.92711 14.0113 5.85873 13.9015 5.81389 13.7814C5.76905 13.6614 5.74865 13.5336 5.75391 13.4055C5.75917 13.2775 5.78996 13.1518 5.84449 13.0358C5.89902 12.9198 5.97618 12.8159 6.07144 12.7302C6.16669 12.6445 6.27812 12.5787 6.39918 12.5366C6.52024 12.4946 6.64848 12.4772 6.77636 12.4854C6.90425 12.4936 7.0292 12.5273 7.14387 12.5845C7.25854 12.6417 7.36062 12.7213 7.44411 12.8185L10.1659 15.8425L17.5331 7.07392C17.6983 6.88286 17.9321 6.76451 18.1839 6.74444C18.4357 6.72437 18.6853 6.80421 18.8788 6.96669C19.0722 7.12916 19.1939 7.36123 19.2176 7.61273C19.2413 7.86422 19.1651 8.11495 19.0054 8.3107Z" fill="#048C5B"/>
</svg>
