<svg width="40" height="40" viewBox="0 0 40 40" fill="none" xmlns="http://www.w3.org/2000/svg">
<circle cx="20" cy="20" r="20" fill="white"/>
<circle cx="20" cy="20" r="11.5" stroke="#1C6BA4"/>
<path d="M18.376 17.344C18.376 16.16 19.208 15.424 20.152 15.424C21.096 15.424 22.008 16.08 22.008 17.12C22.008 17.856 21.368 18.608 20.696 18.768C19.464 19.152 18.552 19.776 18.552 21.312V22.192H19.96L19.992 21.312C19.992 20.56 20.472 20.336 21.128 20.144C22.376 19.76 23.432 18.672 23.432 17.12C23.432 15.2 21.88 14 20.152 14C18.424 14 17 15.296 17 17.344H18.376ZM18.216 24.304C18.216 24.88 18.696 25.296 19.272 25.296C19.848 25.296 20.312 24.88 20.312 24.304C20.312 23.728 19.848 23.296 19.272 23.296C18.696 23.296 18.216 23.728 18.216 24.304Z" fill="#1C6BA4"/>
</svg>
