<svg width="60" height="60" viewBox="0 0 60 60" fill="none" xmlns="http://www.w3.org/2000/svg">
<path d="M24.0009 6C20.8182 6 17.7658 7.26428 15.5153 9.51472C13.2648 11.7652 12.0005 14.8174 12.0005 18C12.0005 21.1826 13.2648 24.2348 15.5153 26.4853C17.7658 28.7357 20.8182 30 24.0009 30C27.1836 30 30.236 28.7357 32.4865 26.4853C34.7371 24.2348 36.0014 21.1826 36.0014 18C36.0014 14.8174 34.7371 11.7652 32.4865 9.51472C30.236 7.26428 27.1836 6 24.0009 6ZM6.00023 18C6.00023 13.2261 7.89673 8.64773 11.2725 5.27208C14.6483 1.89642 19.2268 0 24.0009 0C28.775 0 33.3536 1.89642 36.7293 5.27208C40.1051 8.64773 42.0016 13.2261 42.0016 18C42.0016 22.7739 40.1051 27.3523 36.7293 30.7279C33.3536 34.1036 28.775 36 24.0009 36C19.2268 36 14.6483 34.1036 11.2725 30.7279C7.89673 27.3523 6.00023 22.7739 6.00023 18ZM58.9943 27.759C59.5883 28.2875 59.9481 29.0303 59.9948 29.824C60.0415 30.6177 59.7712 31.3975 59.2433 31.992L51.245 40.992C50.9635 41.3087 50.6181 41.5622 50.2316 41.7359C49.8451 41.9095 49.4261 41.9992 49.0024 41.9992C48.5787 41.9992 48.1597 41.9095 47.7732 41.7359C47.3867 41.5622 47.0413 41.3087 46.7598 40.992L42.7607 36.492C42.263 35.8934 42.0175 35.1248 42.0761 34.3485C42.1346 33.5722 42.4927 32.8491 43.0745 32.332C43.6564 31.8148 44.4165 31.544 45.1943 31.5769C45.9721 31.6097 46.7066 31.9436 47.2428 32.508L49.0009 34.485L54.7611 28.005C55.2901 27.4115 56.0331 27.0522 56.8268 27.006C57.6205 26.9599 58.4001 27.2307 58.9943 27.759ZM13.5005 48C9.72038 48 6.00023 51.639 6.00023 57C6.00023 57.7957 5.68415 58.5587 5.12152 59.1213C4.55889 59.6839 3.7958 60 3.00012 60C2.20444 60 1.44134 59.6839 0.878713 59.1213C0.316083 58.5587 0 57.7957 0 57C0 49.104 5.67922 42 13.5005 42H34.5013C42.3226 42 48.0019 49.104 48.0019 57C48.0019 57.7957 47.6858 58.5587 47.1231 59.1213C46.5605 59.6839 45.7974 60 45.0017 60C44.2061 60 43.443 59.6839 42.8803 59.1213C42.3177 58.5587 42.0016 57.7957 42.0016 57C42.0016 51.639 38.2815 48 34.5013 48H13.5005Z" fill="#1C6BA4"/>
</svg>
