<svg width="21" height="18" viewBox="0 0 21 18" fill="none" xmlns="http://www.w3.org/2000/svg">
<path fill-rule="evenodd" clip-rule="evenodd" d="M0 1.575C0 0.705159 0.67158 0 1.5 0H19.5C20.3284 0 21 0.705159 21 1.575C21 2.44484 20.3284 3.15 19.5 3.15H1.5C0.67158 3.15 0 2.44484 0 1.575Z" fill="#7B8D9E"/>
<path fill-rule="evenodd" clip-rule="evenodd" d="M0 8.92498C0 8.05513 0.67158 7.34998 1.5 7.34998H19.5C20.3284 7.34998 21 8.05513 21 8.92498C21 9.79485 20.3284 10.5 19.5 10.5H1.5C0.67158 10.5 0 9.79485 0 8.92498Z" fill="#7B8D9E"/>
<path fill-rule="evenodd" clip-rule="evenodd" d="M0 16.275C0 15.4051 0.646396 14.7 1.44375 14.7H10.1062C10.9036 14.7 11.55 15.4051 11.55 16.275C11.55 17.1448 10.9036 17.85 10.1062 17.85H1.44375C0.646396 17.85 0 17.1448 0 16.275Z" fill="#7B8D9E"/>
</svg>
