<svg width="24" height="24" viewBox="0 0 24 24" fill="none" xmlns="http://www.w3.org/2000/svg">
<path d="M3.83335 2.00002L2.83154 3.00183L20.8346 21.0049L21.8364 20.0031L3.83335 2.00002Z" fill="#1C6BA4"/>
<path d="M2.71429 9.58899C1.59283 10.6117 1 12.0081 1 13.6277C1 15.2215 1.63666 16.6773 2.79266 17.727C3.90615 18.7382 5.40792 19.2947 7.02127 19.2947H17.1211L5.89272 8.06641C4.65261 8.30504 3.54221 8.83368 2.71429 9.58899Z" fill="#1C6BA4"/>
<path d="M22.1005 18.1982C23.1263 17.3813 23.6682 16.1687 23.6682 14.6904C23.6682 11.952 21.5236 10.4693 19.3405 10.1461C19.0518 8.32286 18.2757 6.76353 17.0776 5.60975C15.8035 4.38398 14.1021 3.7027 12.3341 3.71039C10.9851 3.71039 9.72635 4.09203 8.65625 4.81724L22.0633 18.2261C22.0744 18.2168 22.0885 18.2079 22.1005 18.1982Z" fill="#1C6BA4"/>
</svg>
