<svg width="112" height="112" viewBox="0 0 112 112" fill="none" xmlns="http://www.w3.org/2000/svg">
<path d="M56 0C44.9243 0 34.0972 3.28434 24.8881 9.4377C15.6789 15.5911 8.50128 24.3371 4.26277 34.5697C0.0242637 44.8024 -1.08472 56.0621 1.07605 66.925C3.23682 77.788 8.57031 87.7662 16.402 95.598C24.2338 103.43 34.212 108.763 45.075 110.924C55.9379 113.085 67.1976 111.976 77.4303 107.737C87.663 103.499 96.409 96.3211 102.562 87.1119C108.716 77.9028 112 67.0758 112 56C112 41.1479 106.1 26.9041 95.598 16.402C85.096 5.89998 70.8521 0 56 0ZM56 105C46.3087 105 36.8351 102.126 28.7771 96.742C20.7191 91.3578 14.4386 83.7051 10.7299 74.7515C7.02123 65.7979 6.05087 55.9456 7.94155 46.4406C9.83222 36.9355 14.499 28.2045 21.3518 21.3518C28.2046 14.499 36.9355 9.8322 46.4406 7.94152C55.9457 6.05085 65.7979 7.02121 74.7515 10.7299C83.7051 14.4386 91.3578 20.719 96.742 28.7771C102.126 36.8351 105 46.3087 105 56C105 68.9956 99.8375 81.4589 90.6483 90.6482C81.459 99.8375 68.9956 105 56 105Z" fill="#DCEDF9"/>
</svg>
