<svg width="126" height="126" viewBox="0 0 126 126" fill="none" xmlns="http://www.w3.org/2000/svg">
<path d="M63 7C51.9243 7 41.0972 10.2843 31.8881 16.4377C22.6789 22.5911 15.5013 31.3371 11.2628 41.5697C7.02426 51.8024 5.91528 63.0621 8.07605 73.925C10.2368 84.788 15.5703 94.7662 23.402 102.598C31.2338 110.43 41.212 115.763 52.075 117.924C62.9379 120.085 74.1976 118.976 84.4303 114.737C94.663 110.499 103.409 103.321 109.562 94.1119C115.716 84.9028 119 74.0758 119 63C119 48.1479 113.1 33.9041 102.598 23.402C92.096 12.9 77.8521 7 63 7ZM63 112C53.3087 112 43.8351 109.126 35.7771 103.742C27.7191 98.3578 21.4386 90.7051 17.7299 81.7515C14.0212 72.7979 13.0509 62.9456 14.9415 53.4406C16.8322 43.9355 21.499 35.2045 28.3518 28.3518C35.2046 21.499 43.9355 16.8322 53.4406 14.9415C62.9457 13.0508 72.7979 14.0212 81.7515 17.7299C90.7051 21.4386 98.3578 27.719 103.742 35.7771C109.126 43.8351 112 53.3087 112 63C112 75.9956 106.838 88.4589 97.6483 97.6482C88.459 106.838 75.9956 112 63 112Z" fill="#DCEDF9"/>
<path d="M97.9998 42.3501C97.344 41.6982 96.4569 41.3323 95.5323 41.3323C94.6076 41.3323 93.7206 41.6982 93.0648 42.3501L54.2148 81.0251L33.2148 60.025C32.5743 59.3335 31.6853 58.9247 30.7434 58.8886C29.8015 58.8525 28.8838 59.1921 28.1923 59.8325C27.5007 60.473 27.0919 61.362 27.0558 62.3039C27.0197 63.2458 27.3593 64.1635 27.9998 64.8551L54.2148 91L97.9998 47.3201C98.3278 46.9947 98.5882 46.6076 98.7659 46.1811C98.9436 45.7546 99.0351 45.2971 99.0351 44.8351C99.0351 44.373 98.9436 43.9155 98.7659 43.489C98.5882 43.0625 98.3278 42.6754 97.9998 42.3501Z" fill="#1C6BA4"/>
</svg>
