<svg width="24" height="24" viewBox="0 0 24 24" fill="none" xmlns="http://www.w3.org/2000/svg">
<path d="M12.5 1C7.80538 1 4 4.76588 4 9.41177C4 11.78 4.99385 13.9153 6.57615 15.4424V23L12.5 21.7059L18.3846 23V15.4682C19.9931 13.9412 21 11.7929 21 9.41177C21 4.76588 17.1946 1 12.5 1ZM12.5 15.8824C8.89077 15.8824 5.96154 12.9835 5.96154 9.41177C5.96154 5.84 8.89077 2.94118 12.5 2.94118C16.1092 2.94118 19.0385 5.84 19.0385 9.41177C19.0385 12.9835 16.1092 15.8824 12.5 15.8824ZM10.0677 13.1L12.5 11.2753L14.9192 13.1L14.0038 10.1494L16.4231 8.24706H13.4546L12.5 5.33529L11.5454 8.24706H8.57692L10.9962 10.1494L10.0677 13.1Z" fill="#7B8D9E"/>
</svg>
