<svg width="115" height="20" viewBox="0 0 115 20" fill="none" xmlns="http://www.w3.org/2000/svg">
<rect x="0.4" y="0.4" width="17.2" height="17.2" rx="2.6" stroke="#1C6BA4" stroke-width="0.8"/>
<path d="M32.596 9.868C34.144 9.736 34.756 8.548 34.756 7.324C34.756 6.028 34.048 4.732 32.308 4.732H29.128V13H30.256V9.904H31.312L33.448 13H34.804L32.596 9.868ZM32.272 5.776C33.232 5.776 33.604 6.568 33.604 7.324C33.604 8.092 33.232 8.86 32.224 8.86H30.256V5.776H32.272ZM36.9539 9.76C37.0859 8.812 37.8059 8.26 38.7299 8.26C39.6419 8.26 40.3019 8.812 40.4339 9.76H36.9539ZM41.5139 10.18C41.5139 8.404 40.3259 7.276 38.7299 7.276C37.1339 7.276 35.8619 8.404 35.8619 10.18C35.8619 11.956 37.1339 13.12 38.7299 13.12C39.8219 13.12 40.8299 12.628 41.3099 11.632C41.0099 11.5 40.6619 11.404 40.3739 11.272C40.0499 11.836 39.4379 12.136 38.7659 12.136C37.8059 12.136 37.0859 11.56 36.9539 10.612H41.5019C41.5139 10.48 41.5139 10.312 41.5139 10.18ZM49.4958 8.344C50.3118 8.344 50.7798 8.908 50.7798 9.832V13H51.8718V9.76C51.8718 8.176 51.1158 7.276 49.7118 7.276C49.1718 7.276 48.2838 7.432 47.7678 8.428C47.5038 7.816 47.0118 7.444 46.3038 7.336C46.1118 7.3 45.9078 7.288 45.6918 7.3C45.2358 7.336 44.4318 7.612 44.1438 8.236V7.396H43.0518V13H44.1438V9.976C44.1438 8.8 44.9238 8.344 45.7038 8.344C46.4358 8.344 46.9158 8.896 46.9158 9.82V13H48.0078V9.976C48.0078 9.04 48.5718 8.344 49.4958 8.344ZM54.4922 9.76C54.6242 8.812 55.3442 8.26 56.2682 8.26C57.1802 8.26 57.8402 8.812 57.9722 9.76H54.4922ZM59.0522 10.18C59.0522 8.404 57.8642 7.276 56.2682 7.276C54.6722 7.276 53.4002 8.404 53.4002 10.18C53.4002 11.956 54.6722 13.12 56.2682 13.12C57.3602 13.12 58.3682 12.628 58.8482 11.632C58.5482 11.5 58.2002 11.404 57.9122 11.272C57.5882 11.836 56.9762 12.136 56.3042 12.136C55.3442 12.136 54.6242 11.56 54.4922 10.612H59.0402C59.0522 10.48 59.0522 10.312 59.0522 10.18ZM67.0341 8.344C67.8501 8.344 68.3181 8.908 68.3181 9.832V13H69.4101V9.76C69.4101 8.176 68.6541 7.276 67.2501 7.276C66.7101 7.276 65.8221 7.432 65.3061 8.428C65.0421 7.816 64.5501 7.444 63.8421 7.336C63.6501 7.3 63.4461 7.288 63.2301 7.3C62.7741 7.336 61.9701 7.612 61.6821 8.236V7.396H60.5901V13H61.6821V9.976C61.6821 8.8 62.4621 8.344 63.2421 8.344C63.9741 8.344 64.4541 8.896 64.4541 9.82V13H65.5461V9.976C65.5461 9.04 66.1101 8.344 67.0341 8.344ZM72.4024 12.136C72.7744 12.76 73.5784 13.12 74.3584 13.12C75.8944 13.12 77.2024 11.968 77.2024 10.192C77.2024 8.404 75.9184 7.276 74.3704 7.276C73.5544 7.276 72.7744 7.6 72.4024 8.236V4.348H71.3104V13H72.4024V12.136ZM72.4144 10.18C72.4144 8.98 73.3624 8.344 74.2744 8.344C75.2824 8.344 76.0864 9.076 76.0864 10.18C76.0864 11.284 75.2824 12.052 74.2744 12.052C73.2784 12.052 72.4144 11.368 72.4144 10.18ZM79.5281 9.76C79.6601 8.812 80.3801 8.26 81.3041 8.26C82.2161 8.26 82.8761 8.812 83.0081 9.76H79.5281ZM84.0881 10.18C84.0881 8.404 82.9001 7.276 81.3041 7.276C79.7081 7.276 78.4361 8.404 78.4361 10.18C78.4361 11.956 79.7081 13.12 81.3041 13.12C82.3961 13.12 83.4041 12.628 83.8841 11.632C83.5841 11.5 83.2361 11.404 82.9481 11.272C82.6241 11.836 82.0121 12.136 81.3401 12.136C80.3801 12.136 79.6601 11.56 79.5281 10.612H84.0761C84.0881 10.48 84.0881 10.312 84.0881 10.18ZM86.7181 10.96C86.7181 9.472 87.1741 8.32 88.2541 8.32C88.4821 8.32 88.7821 8.368 89.0821 8.512L89.2501 7.492C89.0941 7.384 88.6741 7.276 88.2781 7.276C87.5461 7.276 87.0061 7.66 86.7181 8.656V7.396H85.6261V13H86.7181V10.96ZM99.9287 8.344C100.745 8.344 101.213 8.908 101.213 9.832V13H102.305V9.76C102.305 8.176 101.549 7.276 100.145 7.276C99.6047 7.276 98.7167 7.432 98.2007 8.428C97.9367 7.816 97.4447 7.444 96.7367 7.336C96.5447 7.3 96.3407 7.288 96.1247 7.3C95.6687 7.336 94.8647 7.612 94.5767 8.236V7.396H93.4847V13H94.5767V9.976C94.5767 8.8 95.3567 8.344 96.1367 8.344C96.8687 8.344 97.3487 8.896 97.3487 9.82V13H98.4407V9.976C98.4407 9.04 99.0047 8.344 99.9287 8.344ZM104.925 9.76C105.057 8.812 105.777 8.26 106.701 8.26C107.613 8.26 108.273 8.812 108.405 9.76H104.925ZM109.485 10.18C109.485 8.404 108.297 7.276 106.701 7.276C105.105 7.276 103.833 8.404 103.833 10.18C103.833 11.956 105.105 13.12 106.701 13.12C107.793 13.12 108.801 12.628 109.281 11.632C108.981 11.5 108.633 11.404 108.345 11.272C108.021 11.836 107.409 12.136 106.737 12.136C105.777 12.136 105.057 11.56 104.925 10.612H109.473C109.485 10.48 109.485 10.312 109.485 10.18Z" fill="#7B8D9E"/>
</svg>
